<?xml version="1.0" standalone="yes"?>
<svg xmlns="http://www.w3.org/2000/svg" width="200" height="200">
    <title>parrot</title>
    <desc>https://parrot.dqv5.com</desc>
    <path style="fill:#ffffff; stroke:none;" d="M0 0L0 200L200 200L200 0L0 0z"/>
    <path style="fill:#1761a1; stroke:none;" d="M55 156L21 156C17.6217 156 10.2963 154.824 10.2963 160C10.2963 164.903 16.7281 163.999 20 164L54 164C54.0337 167.767 54.9954 171.284 55.2006 175C55.4595 179.688 53.6789 185.835 60.0193 186.852C70.3572 188.51 72.8766 179.505 78.5177 173.108C82.2791 168.843 90.3871 165.069 96 164.213C103.389 163.086 111.532 164 119 164L165 164L182 163.999C184.183 163.984 187.447 164.371 188.968 162.397C194.591 155.101 178.928 156 176 156L123 156C123.032 147.053 127.668 144.946 133.83 139.246C138.585 134.848 142.926 129.913 145.676 124C154.925 104.111 144.592 84.2364 137 66C142.519 65.7594 147.193 64.2823 152 61.5517C153.933 60.4537 155.763 59.1774 158 58.7955C161.063 58.2725 164.871 59.8263 166.972 56.6821C170.479 51.4347 166.051 40.6837 163.236 36.0008C156.927 25.5034 147.15 25.008 137 20.7793C129.409 17.617 123.692 13.179 115 13.179C111.103 13.179 106.616 14.0386 103 15.4792C100.118 16.6274 97.3841 18.297 95.0401 20.3287C82.8029 30.9359 85 46.4831 85 61C85 64.8394 85.585 69.2778 84.4869 73C81.4379 83.3353 71.7737 91.4781 66.9699 101C58.7741 117.245 55.1499 137.886 55 156z"/>
    <path style="fill:#ffffff; stroke:none;" d="M110 22.5293C82.8843 28.7939 92.1763 71.0195 119 65.3295C122.242 64.6418 125.329 63.4556 127.985 61.4421C146.506 47.4056 132.834 17.254 110 22.5293M143 32C144.053 35.3213 144.059 40.7137 146.027 43.49C148.392 46.8257 155.296 47.7948 159 49C157.006 40.6078 151.852 33.6032 143 32z"/>
    <path style="fill:#1761a1; stroke:none;" d="M112.445 41.0324C108.523 43.7913 112.738 49.4391 116.682 46.9529C121.022 44.2173 116.617 38.0977 112.445 41.0324z"/>
    <path style="fill:#ffffff; stroke:none;" d="M143 56L147 55C146.402 53.8046 146.534 54.0226 145 53C143.985 54.1394 143.691 54.6115 143 56M93 66L93 76C98.0746 74.574 102.736 74.0035 108 74C103.362 71.0667 97.9443 68.4487 93 66M111 74C116.036 77.1845 121.468 78.7466 125.815 83.1736C141.378 99.0236 131.772 119.354 124 136C147.445 119.483 142.106 92.4325 129 71C122.809 73.0137 117.519 73.9993 111 74M63 165C86.8243 163.961 108.754 146.119 119.961 126C124.981 116.988 128.863 103.695 123.583 94C115.764 79.6453 98.4305 79.7916 87.0039 89.3287C75.0677 99.291 70.1442 114.373 66.8843 129C64.2973 140.608 63.0013 153.125 63 165M114 152L108 155C110.332 155.985 112.457 155.981 115 156C114.826 154.315 114.683 153.506 114 152M65 173L64 177C65.4336 175.607 66.0449 174.767 67 173L65 173z"/>
</svg>
