<?xml version="1.0" standalone="no"?>
<svg xmlns="http://www.w3.org/2000/svg" width="200" height="200" viewBox="0 0 1024 1024"
     preserveAspectRatio="xMidYMid meet">
    <g transform="translate(0,1024) scale(0.1,-0.1)" fill="#000" stroke="none">
        <path d="M5720 9559 c-535 -61 -966 -344 -1184 -776 -109 -218 -162 -436 -187
-768 -10 -144 -6 -985 7 -1150 6 -86 -10 -269 -31 -348 -38 -143 -133 -336
-257 -521 -34 -50 -140 -197 -237 -326 -97 -129 -202 -271 -232 -315 -371
-533 -658 -1472 -753 -2460 -13 -131 -36 -523 -36 -612 l0 -22 -1052 -3 -1053
-3 -50 -23 c-81 -37 -115 -78 -129 -154 -8 -45 8 -112 37 -152 11 -16 45 -40
76 -55 l56 -26 1031 -3 1032 -2 7 -78 c3 -42 16 -138 27 -212 14 -93 23 -215
28 -395 6 -232 9 -266 28 -315 45 -115 136 -168 306 -177 164 -9 285 31 409
133 68 56 139 141 273 331 135 190 206 276 283 340 142 117 358 233 569 303
221 74 401 91 832 82 162 -4 1134 -7 2160 -7 1778 0 1867 1 1912 18 52 20 101
70 129 131 54 119 -12 193 -212 238 -94 22 -96 22 -1653 25 l-1558 4 7 77 c17
183 74 316 190 440 39 41 138 135 222 209 364 318 580 577 721 858 204 410
259 856 166 1365 -65 359 -177 688 -459 1350 -64 151 -119 280 -121 286 -3 7
24 13 78 18 238 20 466 97 731 250 186 106 194 109 402 115 162 6 185 9 228
30 56 27 96 77 128 160 19 47 22 76 22 181 0 145 -15 229 -75 405 -104 310
-264 563 -449 709 -167 132 -307 198 -699 331 -304 103 -403 143 -675 275
-115 56 -254 120 -308 141 -233 93 -453 124 -687 98z m395 -468 c449 -92 794
-480 866 -972 28 -191 -9 -436 -91 -607 -75 -157 -206 -316 -349 -421 -182
-136 -437 -214 -696 -214 -214 -1 -366 43 -539 157 -500 325 -661 1113 -329
1613 48 74 151 183 225 240 123 94 315 176 484 207 117 21 320 20 429 -3z
m1410 -554 c235 -99 430 -309 539 -581 37 -91 72 -204 65 -211 -5 -5 -270 65
-361 95 -157 53 -266 128 -310 213 -35 70 -48 116 -84 311 -19 105 -37 201
-41 213 l-5 22 73 -20 c40 -11 96 -30 124 -42z m-44 -1057 c26 -25 39 -44 33
-49 -7 -8 -159 -51 -178 -51 -10 0 24 61 56 103 16 20 34 37 38 37 5 0 28 -18
51 -40z m-2476 -744 c237 -121 444 -235 485 -266 l25 -20 -100 0 c-157 0 -403
-33 -568 -76 -32 -8 -64 -13 -69 -12 -8 3 -11 79 -10 229 0 265 0 259 8 259 4
0 107 -51 229 -114z m1662 -244 c242 -418 400 -837 474 -1257 21 -113 24 -163
24 -385 0 -274 -5 -325 -56 -518 -104 -398 -347 -745 -712 -1017 l-38 -28 24
54 c14 30 59 130 101 223 199 440 306 756 361 1071 22 124 30 378 16 495 -39
321 -171 596 -400 834 -131 136 -209 188 -524 352 -109 57 -206 109 -217 117
-18 12 -3 15 117 20 224 11 447 50 663 117 52 16 97 29 100 29 3 1 33 -48 67
-107z m-1198 -492 c385 -40 693 -254 869 -605 147 -292 151 -685 12 -1119
-232 -725 -901 -1535 -1647 -1996 -444 -275 -944 -448 -1375 -477 l-98 -6 0
119 c0 460 75 1143 181 1637 178 838 416 1412 753 1815 96 115 283 293 384
365 206 147 455 243 692 266 123 12 119 12 229 1z m385 -3597 c9 -27 19 -70
22 -97 l7 -49 -114 5 c-67 3 -139 12 -174 23 l-59 18 144 73 c80 40 148 73
152 73 3 1 13 -20 22 -46z m-2434 -1031 c0 -11 -64 -102 -103 -147 l-36 -40
15 60 c37 148 30 135 79 135 25 0 45 -3 45 -8z"/>
        <path d="M5774 8150 c-81 -46 -116 -122 -93 -199 25 -83 109 -150 190 -151 53
0 136 45 167 93 39 59 38 140 -4 199 -64 91 -165 113 -260 58z"/>
    </g>
</svg>
